<mxfile host="app.diagrams.net" agent="Mozilla/5.0 (Windows NT 10.0; Win64; x64) AppleWebKit/537.36 (KHTML, like Gecko) Chrome/140.0.0.0 Safari/537.36" version="28.2.3">
  <diagram name="Page-1" id="nyWPZNVnwxpgpzb4Okbb">
    <mxGraphModel dx="1042" dy="596" grid="1" gridSize="10" guides="1" tooltips="1" connect="1" arrows="1" fold="1" page="1" pageScale="1" pageWidth="827" pageHeight="1169" math="0" shadow="0">
      <root>
        <mxCell id="0" />
        <mxCell id="1" parent="0" />
        <mxCell id="AaedQ9yPCrZqm83h_k6c-4" value="" style="edgeStyle=orthogonalEdgeStyle;rounded=0;orthogonalLoop=1;jettySize=auto;html=1;" edge="1" parent="1" source="AaedQ9yPCrZqm83h_k6c-1" target="AaedQ9yPCrZqm83h_k6c-3">
          <mxGeometry relative="1" as="geometry" />
        </mxCell>
        <mxCell id="AaedQ9yPCrZqm83h_k6c-1" value="start" style="ellipse;whiteSpace=wrap;html=1;" vertex="1" parent="1">
          <mxGeometry x="360" y="100" width="120" height="80" as="geometry" />
        </mxCell>
        <mxCell id="AaedQ9yPCrZqm83h_k6c-6" value="" style="edgeStyle=orthogonalEdgeStyle;rounded=0;orthogonalLoop=1;jettySize=auto;html=1;" edge="1" parent="1" source="AaedQ9yPCrZqm83h_k6c-3" target="AaedQ9yPCrZqm83h_k6c-5">
          <mxGeometry relative="1" as="geometry" />
        </mxCell>
        <mxCell id="AaedQ9yPCrZqm83h_k6c-3" value="nhập thông tin" style="shape=parallelogram;perimeter=parallelogramPerimeter;whiteSpace=wrap;html=1;fixedSize=1;" vertex="1" parent="1">
          <mxGeometry x="360" y="240" width="120" height="50" as="geometry" />
        </mxCell>
        <mxCell id="AaedQ9yPCrZqm83h_k6c-9" value="Yes" style="edgeStyle=orthogonalEdgeStyle;rounded=0;orthogonalLoop=1;jettySize=auto;html=1;" edge="1" parent="1" source="AaedQ9yPCrZqm83h_k6c-5" target="AaedQ9yPCrZqm83h_k6c-7">
          <mxGeometry relative="1" as="geometry" />
        </mxCell>
        <mxCell id="AaedQ9yPCrZqm83h_k6c-11" value="No" style="edgeStyle=orthogonalEdgeStyle;rounded=0;orthogonalLoop=1;jettySize=auto;html=1;" edge="1" parent="1" source="AaedQ9yPCrZqm83h_k6c-5" target="AaedQ9yPCrZqm83h_k6c-10">
          <mxGeometry relative="1" as="geometry" />
        </mxCell>
        <mxCell id="AaedQ9yPCrZqm83h_k6c-5" value="kiểm tra thông tin" style="rhombus;whiteSpace=wrap;html=1;" vertex="1" parent="1">
          <mxGeometry x="360" y="330" width="120" height="100" as="geometry" />
        </mxCell>
        <mxCell id="AaedQ9yPCrZqm83h_k6c-14" style="edgeStyle=orthogonalEdgeStyle;rounded=0;orthogonalLoop=1;jettySize=auto;html=1;entryX=0.98;entryY=0.697;entryDx=0;entryDy=0;entryPerimeter=0;" edge="1" parent="1">
          <mxGeometry relative="1" as="geometry">
            <mxPoint x="489.9999999999999" y="565.76" as="targetPoint" />
            <mxPoint x="642.4" y="380" as="sourcePoint" />
            <Array as="points">
              <mxPoint x="642.4" y="566" />
            </Array>
          </mxGeometry>
        </mxCell>
        <mxCell id="AaedQ9yPCrZqm83h_k6c-7" value="đăng kí tài khoản" style="rounded=0;whiteSpace=wrap;html=1;" vertex="1" parent="1">
          <mxGeometry x="560" y="360" width="120" height="40" as="geometry" />
        </mxCell>
        <mxCell id="AaedQ9yPCrZqm83h_k6c-12" style="edgeStyle=orthogonalEdgeStyle;rounded=0;orthogonalLoop=1;jettySize=auto;html=1;entryX=0;entryY=0.5;entryDx=0;entryDy=0;" edge="1" parent="1" source="AaedQ9yPCrZqm83h_k6c-10" target="AaedQ9yPCrZqm83h_k6c-3">
          <mxGeometry relative="1" as="geometry">
            <mxPoint x="250" y="260" as="targetPoint" />
            <Array as="points">
              <mxPoint x="250" y="265" />
            </Array>
          </mxGeometry>
        </mxCell>
        <mxCell id="AaedQ9yPCrZqm83h_k6c-10" value="Thông báo lỗi" style="rounded=0;whiteSpace=wrap;html=1;" vertex="1" parent="1">
          <mxGeometry x="190" y="360" width="120" height="40" as="geometry" />
        </mxCell>
        <mxCell id="AaedQ9yPCrZqm83h_k6c-13" value="end" style="ellipse;whiteSpace=wrap;html=1;" vertex="1" parent="1">
          <mxGeometry x="370" y="530" width="120" height="80" as="geometry" />
        </mxCell>
      </root>
    </mxGraphModel>
  </diagram>
</mxfile>
